<svg width="427" height="490" xmlns="http://www.w3.org/2000/svg" version="1.1" xml:space="preserve">
 <g id="Layer_1">
  <title>Layer 1</title>
  <g id="svg_2">
   <path class="st0" d="m10.6,10.1l15.4,338l4.4,95.6c56.3,23.4 118.1,36.4 182.9,36.4c64.8,0 126.6,-13 183,-36.4l4.3,-95.6l15.4,-338l-405.4,0z" fill="#FFFFFF" id="svg_1"/>
   <path class="st0" d="m213.4,490.2c-64.7,0 -127.5,-12.5 -186.8,-37.2l-5.9,-2.5l-20.7,-450.5l426.7,0l-20.5,450.6l-5.9,2.5c-59.4,24.6 -122.2,37.1 -186.9,37.1zm-173.2,-53.4c55.1,22 113.3,33.2 173.1,33.2c59.9,0 118.1,-11.2 173.2,-33.2l19,-416.5l-384.3,0l19,416.5z" fill="#FFFFFF" id="svg_2"/>
   <path class="st1" d="m213.4,480.1c64.8,0 126.6,-13 183,-36.4l4.3,-95.6c-57.5,24.5 -120.8,38.1 -187.3,38.1c-66.5,0 -129.8,-13.6 -187.3,-38.1l4.4,95.6c56.3,23.4 118,36.4 182.9,36.4z" fill="#EB3043" id="svg_3"/>
   <path class="st2" d="m400.7,348.1l15.4,-338l-405.5,0l15.4,338c57.5,24.5 120.8,38.1 187.3,38.1c66.6,0 129.9,-13.6 187.4,-38.1z" fill="#004FE1" id="svg_4"/>
   <polygon class="st0" points="342.3000183105469,282.1000061035156 350.4999694824219,267.9000244140625 281.1000061035156,198.1999969482422 350.4999694824219,128.40000915527344 342.3000183105469,114.30000305175781 247.3000030517578,139.5 221.49998474121094,44.5 205.1999969482422,44.5 179.5,139.5 84.39999389648438,114.30000305175781 76.19999694824219,128.40000915527344 145.59999084472656,198.1999969482422 76.19999694824219,267.9000244140625 84.39999389648438,282.1000061035156 179.5,256.79998779296875 205.1999969482422,351.79998779296875 221.49998474121094,351.79998779296875 247.3000030517578,256.79998779296875 " fill="#FFFFFF" id="svg_5"/>
  </g>
 </g>

</svg>
