<svg width="35" height="35" viewBox="0 0 35 35" fill="none" xmlns="http://www.w3.org/2000/svg">
<path d="M28.2223 29.9024V33.5631C28.2223 34.0514 27.8264 34.4474 27.3381 34.4474H7.66194C7.17365 34.4474 6.77771 34.0514 6.77771 33.5631V1.43684C6.77771 0.94855 7.17365 0.552612 7.66194 0.552612H27.338C27.8263 0.552612 28.2223 0.94855 28.2223 1.43684V28.2073" fill="#E8DBB8"/>
<g opacity="0.2">
<path d="M8.49524 33.5631V1.43684C8.49524 0.94855 8.89118 0.552612 9.37947 0.552612H7.66194C7.17365 0.552612 6.77771 0.94855 6.77771 1.43684V33.5631C6.77771 34.0514 7.17365 34.4474 7.66194 34.4474H9.37947C8.89111 34.4474 8.49524 34.0514 8.49524 33.5631Z" fill="#231F20"/>
</g>
<path d="M25.1086 14.1179H9.89209V17.0492H25.1086V14.1179Z" fill="#AA9468"/>
<path d="M25.1086 19.9802H9.89209V22.9115H25.1086V19.9802Z" fill="#AA9468"/>
<path d="M25.1086 11.186H9.89209V14.1173H25.1086V11.186Z" fill="#CCB88B"/>
<path d="M25.1086 17.049H9.89209V19.9803H25.1086V17.049Z" fill="#CCB88B"/>
<path d="M25.1086 22.9114H9.89209V25.8427H25.1086V22.9114Z" fill="#CCB88B"/>
<path d="M20.7339 3.48393H10.2601V0.552612H24.7397V3.48393H22.5023" fill="#CCB88B"/>
<path d="M17.5 9.04921C18.4564 9.04921 19.2316 8.27394 19.2316 7.31759C19.2316 6.36125 18.4564 5.58598 17.5 5.58598C16.5437 5.58598 15.7684 6.36125 15.7684 7.31759C15.7684 8.27394 16.5437 9.04921 17.5 9.04921Z" fill="#DBDDDD"/>
<path d="M28.2223 28.7599C28.5276 28.7599 28.7749 28.5126 28.7749 28.2073V1.43685C28.7749 0.64456 28.1304 0 27.3381 0H24.7397H10.2601H7.66185C6.86957 0 6.22501 0.64456 6.22501 1.43685V33.5632C6.22501 34.3554 6.86957 35 7.66185 35H27.3379C28.1302 35 28.7748 34.3554 28.7748 33.5632V29.9024C28.7748 29.5971 28.5275 29.3498 28.2222 29.3498C27.9169 29.3498 27.6695 29.5971 27.6695 29.9024V33.5632C27.6695 33.7459 27.5209 33.8948 27.3379 33.8948H7.66192C7.47913 33.8948 7.33031 33.746 7.33031 33.5632V1.43685C7.33031 1.25405 7.47906 1.10523 7.66192 1.10523H9.70757V3.48394C9.70757 3.78923 9.9549 4.03655 10.2602 4.03655H20.7339C21.0392 4.03655 21.2865 3.78923 21.2865 3.48394C21.2865 3.17864 21.0392 2.93132 20.7339 2.93132H10.8128V1.10523H24.1871V2.93125H22.5023C22.197 2.93125 21.9497 3.17857 21.9497 3.48387C21.9497 3.78916 22.197 4.03648 22.5023 4.03648H24.7397C25.045 4.03648 25.2923 3.78916 25.2923 3.48387V1.10523H27.3381C27.521 1.10523 27.6698 1.25398 27.6698 1.43685V28.2073C27.6697 28.5126 27.917 28.7599 28.2223 28.7599Z" fill="#231F20"/>
<path d="M25.6607 22.9115V19.9802V17.0489V14.1176V11.1863C25.6607 10.881 25.4134 10.6337 25.1081 10.6337H9.89173C9.58644 10.6337 9.33911 10.881 9.33911 11.1863V14.1176V17.049V19.9803V22.9116V25.8429C9.33911 26.1482 9.58644 26.3955 9.89173 26.3955H25.1081C25.4134 26.3955 25.6607 26.1482 25.6607 25.8429V22.9115ZM10.4443 17.6015H24.5554V19.4275H10.4443V17.6015ZM24.5555 16.4963H10.4443V14.6703H24.5554V16.4963H24.5555ZM10.4443 20.5328H24.5554V22.3588H10.4443V20.5328ZM10.4443 11.7389H24.5554V13.5649H10.4443V11.7389ZM24.5555 25.2902H10.4443V23.4642H24.5554V25.2902H24.5555Z" fill="#231F20"/>
<path d="M19.7842 7.31787C19.7842 6.05828 18.7595 5.03365 17.4999 5.03365C16.2403 5.03365 15.2157 6.05828 15.2157 7.31787C15.2157 8.57746 16.2403 9.6021 17.4999 9.6021C18.7595 9.6021 19.7842 8.57746 19.7842 7.31787ZM16.321 7.31787C16.321 6.66784 16.8499 6.13895 17.4999 6.13895C18.15 6.13895 18.6789 6.66784 18.6789 7.31787C18.6789 7.9679 18.15 8.4968 17.4999 8.4968C16.8499 8.4968 16.321 7.96797 16.321 7.31787Z" fill="#231F20"/>
<path d="M25.6607 28.5021C25.6607 28.1968 25.4134 27.9495 25.1081 27.9495H9.89173C9.58644 27.9495 9.33911 28.1968 9.33911 28.5021C9.33911 28.8074 9.58644 29.0547 9.89173 29.0547H25.1081C25.4134 29.0547 25.6607 28.8073 25.6607 28.5021Z" fill="#231F20"/>
<path d="M14.8997 31.3758V31.3774C14.8997 31.6827 15.147 31.9292 15.4523 31.9292C15.7576 31.9292 16.0049 31.681 16.0049 31.3757C16.0049 31.0704 15.7576 30.8231 15.4523 30.8231C15.1471 30.823 14.8997 31.0706 14.8997 31.3758Z" fill="#231F20"/>
<path d="M12.89 31.3758V31.3774C12.89 31.6827 13.1373 31.9292 13.4426 31.9292C13.7479 31.9292 13.9952 31.681 13.9952 31.3757C13.9952 31.0704 13.7479 30.8231 13.4426 30.8231C13.1373 30.823 12.89 31.0706 12.89 31.3758Z" fill="#231F20"/>
<path d="M10.8801 31.3758V31.3774C10.8801 31.6827 11.1275 31.9292 11.4327 31.9292C11.738 31.9292 11.9854 31.681 11.9854 31.3757C11.9854 31.0704 11.738 30.8231 11.4327 30.8231C11.1275 30.8231 10.8801 31.0706 10.8801 31.3758Z" fill="#231F20"/>
<path d="M16.9854 31.3774C16.9854 31.6827 17.2328 31.93 17.5381 31.93C17.8434 31.93 18.0907 31.6827 18.0907 31.3774V31.3758C18.0907 31.0705 17.8434 30.824 17.5381 30.824C17.2328 30.8239 16.9854 31.0721 16.9854 31.3774Z" fill="#231F20"/>
<path d="M23.0146 31.3774C23.0146 31.6827 23.2619 31.93 23.5672 31.93C23.8725 31.93 24.1199 31.6827 24.1199 31.3774V31.3758C24.1199 31.0705 23.8725 30.824 23.5672 30.824C23.2619 30.8239 23.0146 31.0721 23.0146 31.3774Z" fill="#231F20"/>
<path d="M21.0048 31.3774C21.0048 31.6827 21.2521 31.93 21.5574 31.93C21.8627 31.93 22.11 31.6827 22.11 31.3774V31.3758C22.11 31.0705 21.8627 30.824 21.5574 30.824C21.2523 30.8239 21.0048 31.0721 21.0048 31.3774Z" fill="#231F20"/>
<path d="M18.995 31.3774C18.995 31.6827 19.2424 31.93 19.5476 31.93C19.8529 31.93 20.1003 31.6827 20.1003 31.3774V31.3758C20.1003 31.0705 19.8529 30.824 19.5476 30.824C19.2425 30.8239 18.995 31.0721 18.995 31.3774Z" fill="#231F20"/>
<path d="M23.2391 12.0993C22.9338 12.0993 22.6865 12.3474 22.6865 12.6527C22.6865 12.958 22.9338 13.2053 23.2391 13.2053C23.5444 13.2053 23.7917 12.958 23.7917 12.6527V12.6511C23.7917 12.3458 23.5443 12.0993 23.2391 12.0993Z" fill="#231F20"/>
<path d="M23.2391 16.1375C23.5444 16.1375 23.7917 15.8901 23.7917 15.5848V15.5833C23.7917 15.278 23.5444 15.0315 23.2391 15.0315C22.9338 15.0315 22.6865 15.2796 22.6865 15.5849C22.6865 15.8901 22.9338 16.1375 23.2391 16.1375Z" fill="#231F20"/>
<path d="M23.2391 17.9619C22.9338 17.9619 22.6865 18.21 22.6865 18.5153C22.6865 18.8206 22.9338 19.068 23.2391 19.068C23.5444 19.068 23.7917 18.8206 23.7917 18.5153V18.5138C23.7917 18.2085 23.5443 17.9619 23.2391 17.9619Z" fill="#231F20"/>
<path d="M23.2391 20.8933C22.9338 20.8933 22.6865 21.1414 22.6865 21.4467C22.6865 21.752 22.9338 21.9993 23.2391 21.9993C23.5444 21.9993 23.7917 21.752 23.7917 21.4467V21.4452C23.7917 21.1399 23.5443 20.8933 23.2391 20.8933Z" fill="#231F20"/>
<path d="M23.2391 24.9306C23.5444 24.9306 23.7917 24.6833 23.7917 24.378V24.3764C23.7917 24.0711 23.5444 23.8246 23.2391 23.8246C22.9338 23.8246 22.6865 24.0728 22.6865 24.3781C22.6865 24.6833 22.9338 24.9306 23.2391 24.9306Z" fill="#231F20"/>
<path d="M17.5 7.84027C17.7887 7.84027 18.0227 7.60626 18.0227 7.3176C18.0227 7.02893 17.7887 6.79492 17.5 6.79492C17.2113 6.79492 16.9773 7.02893 16.9773 7.3176C16.9773 7.60626 17.2113 7.84027 17.5 7.84027Z" fill="#231F20"/>
<path d="M22.2812 7.87049C22.5865 7.87049 22.8338 7.62317 22.8338 7.31788C22.8338 7.01258 22.5865 6.76526 22.2812 6.76526H21.189C20.8837 6.76526 20.6364 7.01258 20.6364 7.31788C20.6364 7.62317 20.8837 7.87049 21.189 7.87049H22.2812Z" fill="#231F20"/>
<g opacity="0.2">
<path d="M11.6008 11.4085H10.4219V25.6561H11.6008V11.4085Z" fill="#231F20"/>
</g>
<g opacity="0.2">
<path d="M11.9692 0.650787H10.7903V3.69613H11.9692V0.650787Z" fill="#231F20"/>
</g>
</svg>
