<svg width="35" height="35" viewBox="0 0 35 35" fill="none" xmlns="http://www.w3.org/2000/svg">
<path d="M6.5625 1.64062C6.5625 1.3382 6.80695 1.09375 7.10938 1.09375H27.8906C28.193 1.09375 28.4375 1.3382 28.4375 1.64062V6.5625H6.5625V1.64062Z" fill="#F9EBB2"/>
<path d="M28.4375 33.3594C28.4375 33.6618 28.193 33.9062 27.8906 33.9062H7.10938C6.80695 33.9062 6.5625 33.6618 6.5625 33.3594V20.2344C6.5625 19.932 6.80695 19.6875 7.10938 19.6875H27.8906C28.193 19.6875 28.4375 19.932 28.4375 20.2344V33.3594Z" fill="#F9EBB2"/>
<path d="M33.9062 26.25C33.9062 26.8538 33.4162 27.3438 32.8125 27.3438H29.5312V19.6875C29.5312 19.0832 29.0418 18.5938 28.4375 18.5938H6.5625C5.9582 18.5938 5.46875 19.0832 5.46875 19.6875V27.3438H2.1875C1.58375 27.3438 1.09375 26.8538 1.09375 26.25V8.75C1.09375 8.14625 1.58375 7.65625 2.1875 7.65625H32.8125C33.4162 7.65625 33.9062 8.14625 33.9062 8.75V26.25Z" fill="#2B5DAA" fill-opacity="0.666667"/>
<path d="M32.8125 6.5625H29.5312V1.09375C29.5312 0.489453 29.0418 0 28.4375 0H6.5625C5.9582 0 5.46875 0.489453 5.46875 1.09375V6.5625H2.1875C0.978359 6.5625 0 7.54086 0 8.75V26.25C0 27.4591 0.978359 28.4375 2.1875 28.4375H5.46875V33.9062C5.46875 34.5105 5.9582 35 6.5625 35H28.4375C29.0418 35 29.5312 34.5105 29.5312 33.9062V28.4375H32.8125C34.0216 28.4375 35 27.4591 35 26.25V8.75C35 7.54086 34.0216 6.5625 32.8125 6.5625ZM6.5625 1.64062C6.5625 1.3382 6.80695 1.09375 7.10938 1.09375H27.8906C28.193 1.09375 28.4375 1.3382 28.4375 1.64062V6.5625H6.5625V1.64062ZM28.4375 33.3594C28.4375 33.6618 28.193 33.9062 27.8906 33.9062H7.10938C6.80695 33.9062 6.5625 33.6618 6.5625 33.3594V20.2344C6.5625 19.932 6.80695 19.6875 7.10938 19.6875H27.8906C28.193 19.6875 28.4375 19.932 28.4375 20.2344V33.3594ZM33.9062 26.25C33.9062 26.8538 33.4162 27.3438 32.8125 27.3438H29.5312V19.6875C29.5312 19.0832 29.0418 18.5938 28.4375 18.5938H6.5625C5.9582 18.5938 5.46875 19.0832 5.46875 19.6875V27.3438H2.1875C1.58375 27.3438 1.09375 26.8538 1.09375 26.25V8.75C1.09375 8.14625 1.58375 7.65625 2.1875 7.65625H32.8125C33.4162 7.65625 33.9062 8.14625 33.9062 8.75V26.25Z" fill="#394240"/>
<path d="M10.3906 24.0625H16.9531C17.2555 24.0625 17.5 23.818 17.5 23.5156C17.5 23.2132 17.2555 22.9688 16.9531 22.9688H10.3906C10.0882 22.9688 9.84375 23.2132 9.84375 23.5156C9.84375 23.818 10.0882 24.0625 10.3906 24.0625Z" fill="#394240"/>
<path d="M24.6094 26.25H10.3906C10.0882 26.25 9.84375 26.4945 9.84375 26.7969C9.84375 27.0993 10.0882 27.3438 10.3906 27.3438H24.6094C24.9118 27.3438 25.1562 27.0993 25.1562 26.7969C25.1562 26.4945 24.9118 26.25 24.6094 26.25Z" fill="#394240"/>
<path d="M20.7812 29.5312H10.3906C10.0882 29.5312 9.84375 29.7757 9.84375 30.0781C9.84375 30.3805 10.0882 30.625 10.3906 30.625H20.7812C21.0837 30.625 21.3281 30.3805 21.3281 30.0781C21.3281 29.7757 21.0837 29.5312 20.7812 29.5312Z" fill="#394240"/>
<path d="M30.0781 9.84375C29.172 9.84375 28.4375 10.5782 28.4375 11.4844C28.4375 12.3905 29.172 13.125 30.0781 13.125C30.9843 13.125 31.7188 12.3905 31.7188 11.4844C31.7188 10.5782 30.9843 9.84375 30.0781 9.84375ZM30.0781 12.0312C29.7757 12.0312 29.5312 11.7868 29.5312 11.4844C29.5312 11.182 29.7757 10.9375 30.0781 10.9375C30.3805 10.9375 30.625 11.182 30.625 11.4844C30.625 11.7868 30.3805 12.0312 30.0781 12.0312Z" fill="#394240"/>
<path d="M24.6094 9.84375C23.7032 9.84375 22.9688 10.5782 22.9688 11.4844C22.9688 12.3905 23.7032 13.125 24.6094 13.125C25.5155 13.125 26.25 12.3905 26.25 11.4844C26.25 10.5782 25.5155 9.84375 24.6094 9.84375ZM24.6094 12.0312C24.307 12.0312 24.0625 11.7868 24.0625 11.4844C24.0625 11.182 24.307 10.9375 24.6094 10.9375C24.9118 10.9375 25.1562 11.182 25.1562 11.4844C25.1562 11.7868 24.9118 12.0312 24.6094 12.0312Z" fill="#394240"/>
<path d="M24.6094 12.0312C24.9114 12.0312 25.1562 11.7864 25.1562 11.4844C25.1562 11.1823 24.9114 10.9375 24.6094 10.9375C24.3073 10.9375 24.0625 11.1823 24.0625 11.4844C24.0625 11.7864 24.3073 12.0312 24.6094 12.0312Z" fill="#B4CCB9"/>
<path d="M30.0781 12.0312C30.3802 12.0312 30.625 11.7864 30.625 11.4844C30.625 11.1823 30.3802 10.9375 30.0781 10.9375C29.7761 10.9375 29.5312 11.1823 29.5312 11.4844C29.5312 11.7864 29.7761 12.0312 30.0781 12.0312Z" fill="#EE3244"/>
</svg>
