<svg width="35" height="35" viewBox="0 0 35 35" fill="none" xmlns="http://www.w3.org/2000/svg">
<path d="M34.452 4.93213H0.548035V30.0679H29.4103L34.452 25.0261V4.93213Z" fill="#FAFAFA"/>
<path d="M0.548035 4.93213V30.0679H24.9678L5.15245 4.93213H0.548035Z" fill="#E5E5E5"/>
<path d="M29.4102 30.0679L34.452 25.0261H29.4102V30.0679Z" fill="#CCCCCC"/>
<path d="M13.4081 27.7296L11.0699 25.976L8.73175 27.7296V18.3768H13.4081V27.7296Z" fill="#FF8C78"/>
<path d="M13.4081 23.403V18.3768H8.73175V23.2516L11.0699 24.2954L13.4081 23.403Z" fill="#DF7A6E"/>
<path d="M11.0699 7.27036L12.8333 8.28844H14.8695L15.8876 10.0518L17.651 11.0699V13.1061L18.6691 14.8695L17.651 16.6329V18.6691L15.8876 19.6872L14.8695 21.4506H12.8333L11.0699 22.4687L9.30659 21.4506H7.27037L6.25229 19.6872L4.48883 18.6691V16.6329L3.47075 14.8695L4.48883 13.1061V11.0699L6.25229 10.0518L7.27037 8.28844H9.30659L11.0699 7.27036Z" fill="#FF8C78"/>
<path d="M11.0699 20.1305C13.9754 20.1305 16.3309 17.7751 16.3309 14.8695C16.3309 11.964 13.9754 9.6086 11.0699 9.6086C8.16438 9.6086 5.80898 11.964 5.80898 14.8695C5.80898 17.7751 8.16438 20.1305 11.0699 20.1305Z" fill="#CCCCCC"/>
<path d="M11.0699 18.8152C13.2491 18.8152 15.0156 17.0487 15.0156 14.8695C15.0156 12.6904 13.2491 10.9238 11.0699 10.9238C8.89076 10.9238 7.12421 12.6904 7.12421 14.8695C7.12421 17.0487 8.89076 18.8152 11.0699 18.8152Z" fill="#FAFAFA"/>
<path d="M35 4.93213C35 4.62944 34.7547 4.38409 34.452 4.38409H0.548037C0.245342 4.38416 0 4.62944 0 4.93213V22.4686C0 22.7713 0.245342 23.0167 0.548037 23.0167C0.850732 23.0167 1.09607 22.7714 1.09607 22.4686V5.48017H33.904V24.4781H29.4103C29.1076 24.4781 28.8622 24.7233 28.8622 25.0261V29.5198H1.09601V25.976C1.09601 25.6733 0.850664 25.428 0.547969 25.428C0.245273 25.428 0 25.6733 0 25.976V30.0679C0 30.3706 0.245342 30.6159 0.548037 30.6159H29.4103C29.5538 30.6159 29.6963 30.5569 29.7978 30.4555L34.8396 25.4137C34.9411 25.3121 35 25.1698 35 25.0262V4.93213ZM29.9582 28.7448V25.5741H33.129L29.9582 28.7448Z" fill="black"/>
<path d="M17.925 10.5954L16.2887 9.65064L15.344 8.01439C15.2461 7.84486 15.0652 7.7404 14.8695 7.7404H12.9801L11.3439 6.79575C11.1744 6.69786 10.9654 6.69786 10.7959 6.79575L9.15961 7.74047H7.27029C7.07444 7.74047 6.89363 7.84499 6.79574 8.01446L5.85102 9.65071L4.21477 10.5954C4.04524 10.6933 3.94078 10.8742 3.94078 11.07V12.9593L2.99619 14.5955C2.8983 14.765 2.8983 14.974 2.99619 15.1435L3.94092 16.7798V18.6691C3.94092 18.8649 4.04544 19.0457 4.2149 19.1436L5.85115 20.0884L6.79588 21.7246C6.89377 21.8941 7.07465 21.9986 7.27043 21.9986H8.18371V27.7296C8.18371 28.1719 8.70591 28.4339 9.06056 28.168L11.07 26.661L13.0794 28.168C13.4343 28.4342 13.9563 28.1714 13.9563 27.7296V21.9985H14.8696C15.0655 21.9985 15.2463 21.894 15.3442 21.7245L16.2889 20.0883L17.9251 19.1436C18.0947 19.0457 18.1991 18.8648 18.1991 18.669V16.7797L19.1438 15.1435C19.2417 14.9739 19.2417 14.7649 19.1438 14.5954L18.1991 12.9592V11.0699C18.199 10.8741 18.0946 10.6933 17.925 10.5954ZM11.3987 25.5376C11.2038 25.3914 10.936 25.3914 10.7411 25.5376L9.27972 26.6336V22.0678L10.7959 22.9432C10.9638 23.0401 11.176 23.0401 11.344 22.9432L12.8602 22.0678V26.6336L11.3987 25.5376ZM17.1764 16.3589C17.1283 16.4422 17.103 16.5368 17.103 16.6329V18.3527L15.6136 19.2127C15.5303 19.2607 15.4611 19.3299 15.4131 19.4132L14.5531 20.9026H12.8332C12.7371 20.9026 12.6425 20.928 12.5593 20.976L11.07 21.8359L9.58064 20.9759C9.49731 20.9279 9.40277 20.9025 9.30665 20.9025H7.5868L6.72684 19.4132C6.67878 19.3298 6.60953 19.2607 6.52627 19.2126L5.03699 18.3527V16.6329C5.03699 16.5367 5.01163 16.4421 4.96358 16.3589L4.10361 14.8695L4.96358 13.3802C5.01163 13.2969 5.03699 13.2023 5.03699 13.1062V11.3864L6.52634 10.5264C6.60967 10.4783 6.67885 10.4092 6.72691 10.3258L7.58687 8.83648H9.30672C9.4029 8.83648 9.49744 8.81112 9.5807 8.76306L11.07 7.90317L12.5593 8.76313C12.6427 8.81119 12.7372 8.83655 12.8333 8.83655H14.5532L15.4131 10.3259C15.4612 10.4093 15.5304 10.4784 15.6137 10.5265L17.103 11.3864V13.1063C17.103 13.2025 17.1284 13.297 17.1765 13.3803L18.0364 14.8695L17.1764 16.3589Z" fill="black"/>
<path d="M11.0699 9.06055C7.86687 9.06055 5.26094 11.6664 5.26094 14.8695C5.26094 18.0726 7.86687 20.6785 11.0699 20.6785C14.273 20.6785 16.8789 18.0726 16.8789 14.8695C16.8789 11.6664 14.273 9.06055 11.0699 9.06055ZM11.0699 19.5824C8.47123 19.5824 6.35695 17.4682 6.35695 14.8695C6.35695 12.2707 8.47117 10.1565 11.0699 10.1565C13.6687 10.1565 15.7829 12.2707 15.7829 14.8695C15.7829 17.4682 13.6687 19.5824 11.0699 19.5824Z" fill="black"/>
<path d="M21.0073 13.0793H26.7943C27.097 13.0793 27.3424 12.8341 27.3424 12.5313C27.3424 12.2285 27.0971 11.9833 26.7943 11.9833H21.0073C20.7046 11.9833 20.4593 12.2285 20.4593 12.5313C20.4593 12.8341 20.7045 13.0793 21.0073 13.0793Z" fill="black"/>
<path d="M31.5293 13.0793C31.832 13.0793 32.0773 12.8341 32.0773 12.5313C32.0773 12.2285 31.832 11.9833 31.5293 11.9833H28.8988C28.5961 11.9833 28.3508 12.2285 28.3508 12.5313C28.3508 12.8341 28.596 13.0793 28.8988 13.0793H31.5293Z" fill="black"/>
<path d="M21.0073 16.0021H31.5293C31.8319 16.0021 32.0773 15.7568 32.0773 15.4541C32.0773 15.1513 31.832 14.906 31.5293 14.906H21.0073C20.7046 14.906 20.4593 15.1513 20.4593 15.4541C20.4593 15.7568 20.7045 16.0021 21.0073 16.0021Z" fill="black"/>
<path d="M21.0073 18.9248H24.69C24.9927 18.9248 25.238 18.6795 25.238 18.3768C25.238 18.074 24.9927 17.8287 24.69 17.8287H21.0073C20.7046 17.8287 20.4593 18.074 20.4593 18.3768C20.4593 18.6795 20.7045 18.9248 21.0073 18.9248Z" fill="black"/>
<path d="M32.0772 18.3768C32.0772 18.0742 31.832 17.8288 31.5292 17.8288H26.7943C26.4916 17.8288 26.2463 18.0741 26.2463 18.3768C26.2463 18.6796 26.4916 18.9249 26.7943 18.9249H31.5292C31.832 18.9248 32.0772 18.6795 32.0772 18.3768Z" fill="black"/>
<path d="M23.6378 21.9207C23.3351 21.9207 23.0898 22.1659 23.0898 22.4687C23.0898 22.7714 23.335 23.0167 23.6378 23.0167H28.8987C29.2014 23.0167 29.4468 22.7715 29.4468 22.4687C29.4468 22.166 29.2015 21.9207 28.8987 21.9207H23.6378Z" fill="black"/>
</svg>
