<svg width="35" height="35" viewBox="0 0 35 35" fill="none" xmlns="http://www.w3.org/2000/svg">
<path d="M32.8125 0H2.1875C0.978359 0 0 0.978359 0 2.1875V24.0625C0 25.2716 0.978359 26.25 2.1875 26.25H15.3125V31.7188H10.9375C9.72945 31.7188 8.75 32.6982 8.75 33.9062V34.4531C8.75 34.7555 8.99445 35 9.29688 35H25.7031C26.0055 35 26.25 34.7555 26.25 34.4531V33.9062C26.25 32.6982 25.2705 31.7188 24.0625 31.7188H19.6875V26.25H32.8125C34.0216 26.25 35 25.2716 35 24.0625V2.1875C35 0.978359 34.0216 0 32.8125 0ZM24.0625 32.8125C24.6663 32.8125 25.1562 33.3025 25.1562 33.9062H9.84375C9.84375 33.3025 10.3337 32.8125 10.9375 32.8125H24.0625ZM18.5938 31.7188H16.4062V26.25H18.5938V31.7188ZM33.9062 24.0625C33.9062 24.6663 33.4162 25.1562 32.8125 25.1562H2.1875C1.58375 25.1562 1.09375 24.6663 1.09375 24.0625V21.875H33.9062V24.0625ZM33.9062 20.7812H1.09375V2.1875C1.09375 1.58375 1.58375 1.09375 2.1875 1.09375H32.8125C33.4162 1.09375 33.9062 1.58375 33.9062 2.1875V20.7812Z" fill="#394240"/>
<path d="M1.09375 21.875V24.0625C1.09375 24.6662 1.58375 25.1562 2.1875 25.1562H32.8125C33.4162 25.1562 33.9062 24.6662 33.9062 24.0625V21.875H1.09375Z" fill="#506C7F"/>
<path d="M18.5938 26.25H16.4062V31.7188H18.5938V26.25Z" fill="#506C7F"/>
<path d="M24.0625 32.8125H10.9375C10.3338 32.8125 9.84375 33.3025 9.84375 33.9062H25.1562C25.1562 33.3025 24.6663 32.8125 24.0625 32.8125Z" fill="#506C7F"/>
<path d="M1.09375 2.1875V20.7812H33.9062V2.1875C33.9062 1.58375 33.4162 1.09375 32.8125 1.09375H2.1875C1.58375 1.09375 1.09375 1.58375 1.09375 2.1875Z" fill="#B4CCB9"/>
<path d="M17.5 24.6094C18.1041 24.6094 18.5938 24.1197 18.5938 23.5156C18.5938 22.9116 18.1041 22.4219 17.5 22.4219C16.8959 22.4219 16.4062 22.9116 16.4062 23.5156C16.4062 24.1197 16.8959 24.6094 17.5 24.6094Z" fill="#394240"/>
<path opacity="0.3" d="M18.5938 26.25H16.4062V31.7188H18.5938V26.25Z" fill="black"/>
</svg>
